<svg width="132" height="132" viewBox="0 0 132 132" fill="none" xmlns="http://www.w3.org/2000/svg">
    <g filter="url(#filter0_d_2236_8465)">
        <path
            d="M58.237 47.5785C58.8491 45.9243 61.1887 45.9243 61.8008 47.5785L65.9329 58.7453C66.1254 59.2654 66.5354 59.6754 67.0555 59.8679L78.2223 64C79.8765 64.6121 79.8765 66.9517 78.2223 67.5638L67.0555 71.6959C66.5354 71.8884 66.1254 72.2984 65.9329 72.8185L61.8008 83.9853C61.1887 85.6395 58.8491 85.6395 58.237 83.9853L54.1049 72.8185C53.9124 72.2984 53.5024 71.8884 52.9823 71.6959L41.8155 67.5638C40.1613 66.9517 40.1613 64.6121 41.8155 64L52.9823 59.8679C53.5024 59.6754 53.9124 59.2654 54.1049 58.7453L58.237 47.5785Z"
            fill="white" />
        <path
            d="M81.8501 41.2104C82.2581 40.1076 83.8179 40.1076 84.226 41.2104L85.6229 44.9856C85.7512 45.3323 86.0246 45.6057 86.3713 45.734L90.1465 47.1309C91.2493 47.539 91.2493 49.0987 90.1465 49.5068L86.3713 50.9037C86.0246 51.032 85.7512 51.3054 85.6229 51.6521L84.226 55.4273C83.8179 56.5301 82.2581 56.5301 81.8501 55.4273L80.4531 51.6521C80.3248 51.3054 80.0515 51.032 79.7048 50.9037L75.9296 49.5068C74.8268 49.0987 74.8268 47.539 75.9296 47.1309L79.7048 45.734C80.0515 45.6057 80.3248 45.3323 80.4531 44.9856L81.8501 41.2104Z"
            fill="white" />
        <path
            d="M81.8501 76.1362C82.2581 75.0334 83.8179 75.0334 84.226 76.1362L85.6229 79.9114C85.7512 80.2581 86.0246 80.5314 86.3713 80.6597L90.1465 82.0567C91.2493 82.4648 91.2493 84.0245 90.1465 84.4326L86.3713 85.8295C86.0246 85.9578 85.7512 86.2312 85.6229 86.5779L84.226 90.3531C83.8179 91.4559 82.2581 91.4559 81.8501 90.3531L80.4531 86.5779C80.3248 86.2312 80.0515 85.9578 79.7048 85.8295L75.9296 84.4326C74.8268 84.0245 74.8268 82.4648 75.9296 82.0567L79.7048 80.6597C80.0515 80.5314 80.3248 80.2581 80.4531 79.9114L81.8501 76.1362Z"
            fill="white" />
    </g>
    <defs>
        <filter id="filter0_d_2236_8465" x="0.416321" y="0.224731" width="130.716" height="131.114"
            filterUnits="userSpaceOnUse" color-interpolation-filters="sRGB">
            <feFlood flood-opacity="0" result="BackgroundImageFix" />
            <feColorMatrix in="SourceAlpha" type="matrix"
                values="0 0 0 0 0 0 0 0 0 0 0 0 0 0 0 0 0 0 127 0" result="hardAlpha" />
            <feOffset />
            <feGaussianBlur stdDeviation="20.0793" />
            <feComposite in2="hardAlpha" operator="out" />
            <feColorMatrix type="matrix" values="0 0 0 0 1 0 0 0 0 1 0 0 0 0 1 0 0 0 1 0" />
            <feBlend mode="normal" in2="BackgroundImageFix" result="effect1_dropShadow_2236_8465" />
            <feBlend mode="normal" in="SourceGraphic" in2="effect1_dropShadow_2236_8465"
                result="shape" />
        </filter>
    </defs>
</svg>
    